STARTFONT 2.1
FONT misc.math1
SIZE 22 72 72
FONTBOUNDINGBOX 20 22 0 -4
STARTPROPERTIES 4
FONT_DESCENT 4
FONT_ASCENT 18
DEFAULT_CHAR 0
COPYRIGHT "Copyright (c) 1992 AT&T - All rights reserved."
ENDPROPERTIES
CHARS 128
STARTCHAR ch-0
ENCODING 0
SWIDTH 454 0
DWIDTH 10 0
BBX 10 22 0 -4
BITMAP
000000
000000
000000
000000
000000
c18000
e38000
630000
7f0000
3e0000
360000
140000
140000
1c0000
1c0000
000000
000000
000000
000000
000000
000000
000000
ENDCHAR
STARTCHAR ch-1
ENCODING 1
SWIDTH 272 0
DWIDTH 6 0
BBX 6 22 0 -4
BITMAP
000000
000000
000000
000000
600000
f00000
f80000
c80000
c00000
c00000
c00000
c80000
f80000
f00000
600000
000000
000000
000000
000000
000000
000000
000000
ENDCHAR
STARTCHAR ch-2
ENCODING 2
SWIDTH 318 0
DWIDTH 7 0
BBX 7 22 0 -4
BITMAP
000000
000000
000000
000000
000003
380000
640000
640008
040000
3c0000
4c0000
cc0006
c8000b
d80000
700008
000000
000000
000000
000000
000000
000000
000000
ENDCHAR
STARTCHAR ch-3
ENCODING 3
SWIDTH 318 0
DWIDTH 7 0
BBX 7 22 0 -4
BITMAP
000000
000000
000000
000000
000003
fc0000
fc0008
0c0008
0c0000
7c0000
7c0004
0c0006
0c000b
fc0000
fc000c
000000
000000
000000
000000
000000
000000
000000
ENDCHAR
STARTCHAR ch-4
ENCODING 4
SWIDTH 318 0
DWIDTH 7 0
BBX 7 22 0 -4
BITMAP
000000
000000
020000
060000
040003
fc0000
fc000c
0c0008
0c0000
7c0000
7c000c
3c0006
2c000b
fc0000
fc000c
400000
400000
000000
00000c
000000
000000
000000
ENDCHAR
STARTCHAR ch-5
ENCODING 5
SWIDTH 636 0
DWIDTH 14 0
BBX 14 22 0 -4
BITMAP
000000
000000
000002
00c000
0f8003
3fe000
79f00c
613008
c31800
c31800
c6180c
c61806
cc180b
6c1000
68700c
3fe000
1f8000
300000
00000c
000000
000000
000000
ENDCHAR
STARTCHAR ch-6
ENCODING 6
SWIDTH 545 0
DWIDTH 12 0
BBX 12 22 0 -4
BITMAP
000000
000000
000000
000000
000003
040000
0e000f
0a0008
130000
130000
218003
218006
60c00b
7fc008
ffe006
000000
000000
000000
000008
000000
000000
000000
ENDCHAR
STARTCHAR ch-7
ENCODING 7
SWIDTH 500 0
DWIDTH 11 0
BBX 11 22 0 -4
BITMAP
00000d
000000
000000
000000
000003
000000
ffe004
7fc008
604007
308000
308003
190000
190000
0a0000
0e0001
040000
000000
000000
00000f
000000
000000
000000
ENDCHAR
STARTCHAR ch-8
ENCODING 8
SWIDTH 409 0
DWIDTH 9 0
BBX 9 22 0 -4
BITMAP
000000
000000
000000
000000
000003
000000
1f0000
3f0008
600000
c00000
ff0000
ff0006
c0000b
c00000
600009
3f0000
1f0000
000000
00000e
000000
000000
000000
ENDCHAR
STARTCHAR ch-9
ENCODING 9
SWIDTH 409 0
DWIDTH 9 0
BBX 9 22 0 -4
BITMAP
00000d
000000
000000
000000
000003
060000
1f0000
3f0008
6c0007
cc0000
ff0000
ff0000
900000
f00000
60000f
7f0000
5f0000
c00000
000000
000000
000000
000000
ENDCHAR
STARTCHAR ch-10
ENCODING 10
SWIDTH 272 0
DWIDTH 6 0
BBX 6 22 0 -4
BITMAP
000000
000000
000000
000000
000003
000000
000006
000008
380000
780000
c0000c
f00006
c0000b
780000
38000f
000000
000000
000000
000000
000000
000000
000000
ENDCHAR
STARTCHAR ch-11
ENCODING 11
SWIDTH 409 0
DWIDTH 9 0
BBX 9 22 0 -4
BITMAP
000000
000000
000000
000000
000003
000000
f80000
fc0008
060000
030000
ff0008
ff0006
03000b
030000
020000
fc0000
f80000
000000
000008
000000
000000
000000
ENDCHAR
STARTCHAR ch-12
ENCODING 12
SWIDTH 409 0
DWIDTH 9 0
BBX 9 22 0 -4
BITMAP
000000
000000
000000
000000
000003
060000
fc0000
fe0008
1a0000
1b0000
ff0006
ff0006
33000b
630000
62000f
fc0000
f80000
400000
000002
000000
000000
000000
ENDCHAR
STARTCHAR ch-13
ENCODING 13
SWIDTH 272 0
DWIDTH 6 0
BBX 6 22 0 -4
BITMAP
000000
000000
000000
000000
000003
000000
000006
000008
e00000
f00000
18000a
780006
18000b
f00000
e0000f
000000
000000
000000
000002
000000
000000
000000
ENDCHAR
STARTCHAR ch-14
ENCODING 14
SWIDTH 363 0
DWIDTH 8 0
BBX 8 22 0 -4
BITMAP
000000
000000
000000
000000
000003
000000
fe0000
fe0008
fe0000
fe0000
fe0000
fe0006
fe000b
fe0000
fe0008
fe0000
000000
000000
000000
000000
000000
000000
ENDCHAR
STARTCHAR ch-15
ENCODING 15
SWIDTH 454 0
DWIDTH 10 0
BBX 10 22 0 -4
BITMAP
000000
000000
000000
000000
000003
ff8000
630000
630008
630000
630000
63000e
630006
63000b
630000
e3800e
000000
000000
000000
00000e
000000
000000
000000
ENDCHAR
STARTCHAR ch-16
ENCODING 16
SWIDTH 454 0
DWIDTH 10 0
BBX 10 22 0 -4
BITMAP
000000
000000
000000
000000
000003
e38000
63000f
630008
630000
630000
630003
630006
63000b
630000
ff8003
000000
000000
000000
000003
000000
000000
000000
ENDCHAR
STARTCHAR ch-17
ENCODING 17
SWIDTH 454 0
DWIDTH 10 0
BBX 10 22 0 -4
BITMAP
000000
000000
000000
000000
000003
000000
ff0003
e18008
700000
380000
180003
180006
38000b
700000
e18003
ff0000
000000
000000
00000f
000000
000000
000000
ENDCHAR
STARTCHAR ch-18
ENCODING 18
SWIDTH 454 0
DWIDTH 10 0
BBX 10 22 0 -4
BITMAP
000000
000000
000000
000000
000003
000000
000000
000008
000000
000000
ff8000
ff8006
00000b
000000
000008
000000
000000
000000
000001
000000
000000
000000
ENDCHAR
STARTCHAR ch-19
ENCODING 19
SWIDTH 409 0
DWIDTH 9 0
BBX 9 22 0 -4
BITMAP
00000d
000000
000000
000000
000003
000000
ff0000
ff0008
180007
180000
ff0000
ff0000
180000
180000
18000f
000000
000000
000000
000000
000000
000000
000000
ENDCHAR
STARTCHAR ch-20
ENCODING 20
SWIDTH 409 0
DWIDTH 9 0
BBX 9 22 0 -4
BITMAP
00000d
000000
180000
180000
000003
000000
180000
180008
180007
180000
ff0008
ff0000
180000
180000
18000f
000000
000000
000000
000008
000000
000000
000000
ENDCHAR
STARTCHAR ch-21
ENCODING 21
SWIDTH 409 0
DWIDTH 9 0
BBX 9 22 0 -4
BITMAP
000000
000000
000008
000000
000003
030000
060000
060008
0c0000
0c0000
180008
180006
18000b
300000
30000f
600000
600000
c00000
000008
000000
000000
000000
ENDCHAR
STARTCHAR ch-22
ENCODING 22
SWIDTH 409 0
DWIDTH 9 0
BBX 9 22 0 -4
BITMAP
00000d
000000
000000
000000
000003
c00000
600003
600008
300008
300000
18000c
180000
180000
0c0000
0c0008
060000
060000
030000
000000
000000
000000
000000
ENDCHAR
STARTCHAR ch-23
ENCODING 23
SWIDTH 409 0
DWIDTH 9 0
BBX 9 22 0 -4
BITMAP
000000
000000
000000
000000
000003
000000
000000
080008
2a0000
1c0000
770000
1c0006
2a000b
080000
000008
000000
000000
000000
00000c
000000
000000
000000
ENDCHAR
STARTCHAR ch-24
ENCODING 24
SWIDTH 272 0
DWIDTH 6 0
BBX 6 22 0 -4
BITMAP
000000
000000
000000
000000
000003
000000
000000
000008
700000
f80000
d8000a
d80006
f8000b
700000
00000c
000000
000000
000000
000000
000000
000000
000000
ENDCHAR
STARTCHAR ch-25
ENCODING 25
SWIDTH 272 0
DWIDTH 6 0
BBX 6 22 0 -4
BITMAP
000000
000000
000000
000000
000003
000000
000000
000008
700000
f80000
f80000
f80006
f8000b
700000
000008
000000
000000
000000
000000
000000
000000
000000
ENDCHAR
STARTCHAR ch-26
ENCODING 26
SWIDTH 636 0
DWIDTH 14 0
BBX 14 22 0 -4
BITMAP
000000
000000
000000
000000
000003
000000
001800
003808
f02000
f06000
304000
38c006
18800b
1d8000
1f0008
0e0000
060000
000000
000000
000000
000000
000000
ENDCHAR
STARTCHAR ch-27
ENCODING 27
SWIDTH 636 0
DWIDTH 14 0
BBX 14 22 0 -4
BITMAP
000000
000000
000000
000000
000003
040000
0a1800
023808
046000
e24008
ea4000
34c006
19800b
190000
0b0008
0e0000
060000
000000
00000f
000000
000000
000000
ENDCHAR
STARTCHAR ch-28
ENCODING 28
SWIDTH 636 0
DWIDTH 14 0
BBX 14 22 0 -4
BITMAP
000000
000000
000000
000000
000003
010000
031804
053808
0f6000
e14008
e14004
30c006
19800b
190000
0b0004
0e0000
060000
000000
00000b
000000
000000
000000
ENDCHAR
STARTCHAR ch-29
ENCODING 29
SWIDTH 409 0
DWIDTH 9 0
BBX 9 22 0 -4
BITMAP
000000
000000
000000
000000
000003
000000
000001
000008
000000
730008
de000f
8c0006
de000b
730000
000000
000000
000000
000000
00000b
000000
000000
000000
ENDCHAR
STARTCHAR ch-30
ENCODING 30
SWIDTH 636 0
DWIDTH 14 0
BBX 14 22 0 -4
BITMAP
00000d
000000
000000
000000
000003
000000
000000
000008
000007
38f000
5d9800
860800
830800
cdd000
78e00c
000000
000000
000000
000000
000000
000000
000000
ENDCHAR
STARTCHAR ch-31
ENCODING 31
SWIDTH 318 0
DWIDTH 7 0
BBX 7 22 0 -4
BITMAP
000000
000000
000000
000000
000003
c00000
c00000
c00008
c00000
c00000
c00000
c00006
c0000b
fe0008
fe0006
000000
000000
000000
000008
000000
000000
000000
ENDCHAR
STARTCHAR ch-32
ENCODING 32
SWIDTH 363 0
DWIDTH 8 0
BBX 8 22 0 -4
BITMAP
000000
000000
000000
000000
000003
060000
040000
0c0008
180000
100000
300000
600006
c0000b
fe0000
fe0000
000000
000000
000000
00000e
000000
000000
000000
ENDCHAR
STARTCHAR ch-33
ENCODING 33
SWIDTH 363 0
DWIDTH 8 0
BBX 8 22 0 -4
BITMAP
000000
000000
000000
000000
000003
060000
040006
0c0008
c80000
f80000
3c0008
7c0006
c6000b
ff0000
fe0000
060000
000000
000000
00000e
000000
000000
000000
ENDCHAR
STARTCHAR ch-34
ENCODING 34
SWIDTH 363 0
DWIDTH 8 0
BBX 8 22 0 -4
BITMAP
000000
000000
000000
000000
000003
000000
180006
0e0008
1c0000
7c0000
e60008
860006
e6000b
7c0000
0c000c
0e0000
180000
000000
00000e
000000
000000
000000
ENDCHAR
STARTCHAR ch-35
ENCODING 35
SWIDTH 181 0
DWIDTH 4 0
BBX 4 22 0 -4
BITMAP
00000d
000000
000000
000000
000003
600000
600000
600008
600007
600000
60000c
600000
600000
600000
600006
600000
600000
600000
00000c
000000
000000
000000
ENDCHAR
STARTCHAR ch-36
ENCODING 36
SWIDTH 318 0
DWIDTH 7 0
BBX 7 22 0 -4
BITMAP
00000d
000000
000000
000000
000003
300000
300000
340008
3c0007
3c0000
380000
700000
f00000
b00000
300000
300000
300000
300000
000000
000000
000000
000000
ENDCHAR
STARTCHAR ch-37
ENCODING 37
SWIDTH 318 0
DWIDTH 7 0
BBX 7 22 0 -4
BITMAP
000000
000000
000000
000000
000003
cc0000
cc0000
cc0008
cc0000
cc0000
cc000c
cc0006
cc000b
cc0000
cc0000
cc0000
cc0000
cc0000
000000
000000
000000
000000
ENDCHAR
STARTCHAR ch-38
ENCODING 38
SWIDTH 500 0
DWIDTH 11 0
BBX 11 22 0 -4
BITMAP
000000
000000
000000
000000
000003
330000
33000c
334008
33c000
338000
37000c
3f0006
3b000b
730000
f3000c
b30000
330000
330000
00000c
000000
000000
000000
ENDCHAR
STARTCHAR ch-39
ENCODING 39
SWIDTH 454 0
DWIDTH 10 0
BBX 10 22 0 -4
BITMAP
000000
000000
000000
000000
000003
000000
080003
1c0008
1c0000
360000
360003
630006
63000b
c18000
c1800f
000000
000000
000000
000003
000000
000000
000000
ENDCHAR
STARTCHAR ch-40
ENCODING 40
SWIDTH 454 0
DWIDTH 10 0
BBX 10 22 0 -4
BITMAP
000000
000000
000000
000000
000003
000000
c18000
c18008
630000
630000
36000c
360006
1c000b
1c0000
080003
000000
000000
000000
000001
000000
000000
000000
ENDCHAR
STARTCHAR ch-41
ENCODING 41
SWIDTH 409 0
DWIDTH 9 0
BBX 9 22 0 -4
BITMAP
000000
000000
000000
000000
000003
000000
3c0000
7e0008
c30000
c30000
c30003
c30006
c3000b
c30000
c30006
000000
000000
000000
000008
000000
000000
000000
ENDCHAR
STARTCHAR ch-42
ENCODING 42
SWIDTH 409 0
DWIDTH 9 0
BBX 9 22 0 -4
BITMAP
000000
000000
000000
000000
000003
000000
c30000
c30008
c30000
c30000
c30003
c30006
c3000b
7e0000
3c0003
000000
000000
000000
000003
000000
000000
000000
ENDCHAR
STARTCHAR ch-43
ENCODING 43
SWIDTH 363 0
DWIDTH 8 0
BBX 8 22 0 -4
BITMAP
00000d
000000
000000
000000
000003
060000
0e0000
0e0008
080007
180000
180003
180000
180000
180000
100003
d00000
f00000
e00000
00000c
000000
000000
000000
ENDCHAR
STARTCHAR ch-44
ENCODING 44
SWIDTH 590 0
DWIDTH 13 0
BBX 13 22 0 -4
BITMAP
00000d
000000
000000
000000
000003
063000
0e7006
0e7008
084007
18c000
18c008
18c000
18c000
18c000
108008
d68000
f78000
e70000
000000
000000
000000
000000
ENDCHAR
STARTCHAR ch-45
ENCODING 45
SWIDTH 818 0
DWIDTH 18 0
BBX 18 22 0 -4
BITMAP
000000
000000
000000
000000
000003
063180
0e7386
0e7388
084200
18c600
18c608
18c606
18c60b
18c600
108408
d6b400
f7bc00
e73800
000000
000000
000000
000000
ENDCHAR
STARTCHAR ch-46
ENCODING 46
SWIDTH 363 0
DWIDTH 8 0
BBX 8 22 0 -4
BITMAP
000000
000000
000000
000000
000003
060000
0e0006
0e0008
080000
3c0003
5a0008
5a0006
3c000b
180006
100008
d00000
f00000
e00006
000000
000000
000000
00000c
ENDCHAR
STARTCHAR ch-47
ENCODING 47
SWIDTH 636 0
DWIDTH 14 0
BBX 14 22 0 -4
BITMAP
000000
000000
000000
000000
000003
061800
0e3806
0e3808
082000
3cf000
5b6808
5b6806
3cf00b
186000
10400a
d34000
f3c000
e38000
000000
000000
000000
000000
ENDCHAR
STARTCHAR ch-48
ENCODING 48
SWIDTH 909 0
DWIDTH 20 0
BBX 20 22 0 -4
BITMAP
000000
000000
000000
000000
000003
061860
0e38e6
0e38e8
082080
3cf3c8
5b6da8
5b6da6
3cf3cb
186188
10410b
d34d00
f3cf00
e38e00
000000
000000
000000
000000
ENDCHAR
STARTCHAR ch-49
ENCODING 49
SWIDTH 409 0
DWIDTH 9 0
BBX 9 22 0 -4
BITMAP
000000
000000
000000
000000
000003
060000
0e0006
0e0008
080000
3e0008
5b0008
1b0006
18000b
18000d
10000b
d00000
f00000
e00001
000000
000000
000000
00000f
ENDCHAR
STARTCHAR ch-50
ENCODING 50
SWIDTH 409 0
DWIDTH 9 0
BBX 9 22 0 -4
BITMAP
000000
000000
000000
000000
000003
060000
0e0006
0e0008
080000
3e0000
5f0008
5b0006
3c000b
180000
10000b
d00000
f00000
e00000
000000
000000
000000
000000
ENDCHAR
STARTCHAR ch-51
ENCODING 51
SWIDTH 409 0
DWIDTH 9 0
BBX 9 22 0 -4
BITMAP
000000
000000
000000
000000
000003
060000
0e0006
0e0008
080000
3e0000
5b0008
5e0006
3c000b
180000
10000b
d00000
f00000
e00000
000000
000000
000000
000000
ENDCHAR
STARTCHAR ch-52
ENCODING 52
SWIDTH 500 0
DWIDTH 11 0
BBX 11 22 0 -4
BITMAP
000000
000000
000000
000000
000003
000000
000006
0c0008
0c0000
000000
000008
000006
00000b
000000
00000e
c0c000
c0c000
000000
000000
000000
000000
000000
ENDCHAR
STARTCHAR ch-53
ENCODING 53
SWIDTH 500 0
DWIDTH 11 0
BBX 11 22 0 -4
BITMAP
000000
000000
000000
000000
000003
000000
000000
c0c008
c0c000
000000
00000c
000006
00000b
000000
000000
0c0000
0c0000
000000
000000
000000
000000
000000
ENDCHAR
STARTCHAR ch-54
ENCODING 54
SWIDTH 136 0
DWIDTH 3 0
BBX 3 22 0 -4
BITMAP
000000
000000
000000
000000
000003
000000
000000
c00008
c00000
000000
000000
000006
00000b
000000
000000
c00000
c00000
000000
000000
000000
000000
000000
ENDCHAR
STARTCHAR ch-55
ENCODING 55
SWIDTH 500 0
DWIDTH 11 0
BBX 11 22 0 -4
BITMAP
000000
000000
000000
000000
000003
000000
000000
c0c008
c0c000
000000
000000
000006
00000b
000000
000000
c0c000
c0c000
000000
000000
000000
000000
000000
ENDCHAR
STARTCHAR ch-56
ENCODING 56
SWIDTH 500 0
DWIDTH 11 0
BBX 11 22 0 -4
BITMAP
000000
000000
000000
000000
000003
000000
000000
0c0008
0c0000
000000
ffc000
ffc006
00000b
000000
000000
000000
000000
000000
000000
000000
000000
000000
ENDCHAR
STARTCHAR ch-57
ENCODING 57
SWIDTH 500 0
DWIDTH 11 0
BBX 11 22 0 -4
BITMAP
00000d
000000
000000
000000
000003
000000
000000
000008
00c007
00c000
fc000c
fc0000
00c000
00c000
00000f
000000
000000
000000
000000
000000
000000
000000
ENDCHAR
STARTCHAR ch-58
ENCODING 58
SWIDTH 500 0
DWIDTH 11 0
BBX 11 22 0 -4
BITMAP
000000
000000
000000
000000
000003
000000
c0c000
c0c008
000000
000000
ffc000
ffc006
00000b
000000
c0c00c
c0c000
000000
000000
000000
000000
000000
000000
ENDCHAR
STARTCHAR ch-59
ENCODING 59
SWIDTH 454 0
DWIDTH 10 0
BBX 10 22 0 -4
BITMAP
000000
000000
000000
000000
000003
0c0000
0c0000
000008
708000
d88000
8d8000
870006
00000b
0c0000
0c000f
000000
000000
000000
000000
000000
000000
000000
ENDCHAR
STARTCHAR ch-60
ENCODING 60
SWIDTH 454 0
DWIDTH 10 0
BBX 10 22 0 -4
BITMAP
000000
000000
000000
000000
000003
000000
00000c
000008
708000
d88000
8d8000
870006
00000b
000000
000007
000000
000000
000000
00000c
000000
000000
000000
ENDCHAR
STARTCHAR ch-61
ENCODING 61
SWIDTH 454 0
DWIDTH 10 0
BBX 10 22 0 -4
BITMAP
000000
000000
000000
000000
000003
000000
000000
000008
870000
8d8000
d88000
708006
00000b
000000
000007
000000
000000
000000
000000
000000
000000
000000
ENDCHAR
STARTCHAR ch-62
ENCODING 62
SWIDTH 454 0
DWIDTH 10 0
BBX 10 22 0 -4
BITMAP
00000d
000000
000000
000000
000003
000000
000000
030008
708007
d88000
8d8007
870000
600000
000000
000000
000000
000000
000000
000000
000000
000000
000000
ENDCHAR
STARTCHAR ch-63
ENCODING 63
SWIDTH 500 0
DWIDTH 11 0
BBX 11 22 0 -4
BITMAP
00000d
000000
000000
000000
000003
000000
000000
300008
780007
cc0000
cc0000
cc0000
04c000
06c000
06c007
078000
030000
000000
000000
000000
000000
000000
ENDCHAR
STARTCHAR ch-64
ENCODING 64
SWIDTH 181 0
DWIDTH 4 0
BBX 4 22 0 -4
BITMAP
00000d
000000
000000
000000
000003
c00000
e00000
700008
300007
300000
600008
600000
600000
e00000
c0000c
c00000
800000
e00000
600006
000000
000000
000000
ENDCHAR
STARTCHAR ch-65
ENCODING 65
SWIDTH 409 0
DWIDTH 9 0
BBX 9 22 0 -4
BITMAP
00000d
000000
000000
000000
000003
000000
030000
060008
790007
ff0000
9e0000
300000
600000
000000
000000
000000
000000
000000
000000
000000
000000
000000
ENDCHAR
STARTCHAR ch-66
ENCODING 66
SWIDTH 454 0
DWIDTH 10 0
BBX 10 22 0 -4
BITMAP
000000
000000
000000
000000
000003
000000
000000
000008
000000
ff8000
ff8009
000006
00000b
870000
cd8000
dcc000
70c000
000000
000000
000000
000000
000000
ENDCHAR
STARTCHAR ch-67
ENCODING 67
SWIDTH 500 0
DWIDTH 11 0
BBX 11 22 0 -4
BITMAP
000000
000000
000000
000000
000003
000000
000000
000008
78c000
d8c000
cd8000
870006
00000b
000000
ff8000
ff8000
000000
000000
00000d
000000
000000
000000
ENDCHAR
STARTCHAR ch-68
ENCODING 68
SWIDTH 500 0
DWIDTH 11 0
BBX 11 22 0 -4
BITMAP
000000
000000
000000
000000
000003
020000
060000
040008
7cc000
d8c000
dd8008
970006
30000b
600000
400007
ff8000
800000
000000
00000f
000000
000000
000000
ENDCHAR
STARTCHAR ch-69
ENCODING 69
SWIDTH 454 0
DWIDTH 10 0
BBX 10 22 0 -4
BITMAP
000000
000000
000000
000000
000003
000000
e08002
f18008
9f8000
8f0000
00000c
ff8006
ff800b
000000
000007
ff8000
ff8000
000000
000000
000000
000000
000000
ENDCHAR
STARTCHAR ch-70
ENCODING 70
SWIDTH 454 0
DWIDTH 10 0
BBX 10 22 0 -4
BITMAP
000000
000000
000000
000000
000003
000000
e08000
f18008
998000
8f0000
0c000f
ff8006
ff800b
180000
18000f
ff8000
ff8000
300000
000000
000000
000000
000000
ENDCHAR
STARTCHAR ch-71
ENCODING 71
SWIDTH 409 0
DWIDTH 9 0
BBX 9 22 0 -4
BITMAP
00000d
000000
000000
000000
000003
020000
e68000
f78008
9d8007
8f0000
0c0009
ff0000
ff0000
180000
18000f
ff0000
ff0000
300000
000008
000000
000000
000000
ENDCHAR
STARTCHAR ch-72
ENCODING 72
SWIDTH 500 0
DWIDTH 11 0
BBX 11 22 0 -4
BITMAP
000000
000000
000000
000000
000003
000000
000002
000008
70c000
fcc000
8d800d
870006
70c00b
f9c000
cd800f
8f0000
000000
000000
000008
000000
000000
000000
ENDCHAR
STARTCHAR ch-73
ENCODING 73
SWIDTH 500 0
DWIDTH 11 0
BBX 11 22 0 -4
BITMAP
000000
000000
000000
000000
000003
000000
030000
760008
76c000
dcc000
8d8000
8f0006
7cc00b
f8c000
dd8007
9f0000
300000
300000
00000d
000000
000000
000000
ENDCHAR
STARTCHAR ch-74
ENCODING 74
SWIDTH 454 0
DWIDTH 10 0
BBX 10 22 0 -4
BITMAP
000000
000000
000000
000000
000003
000000
600000
f18008
998000
8f0000
660006
f18006
99800b
8f0000
06000f
000000
ff8000
ff8000
00000d
000000
000000
000000
ENDCHAR
STARTCHAR ch-75
ENCODING 75
SWIDTH 454 0
DWIDTH 10 0
BBX 10 22 0 -4
BITMAP
00000d
000000
000000
000000
000003
000000
600000
f18008
998007
8f0000
660009
f18000
998000
8f0000
660001
f18000
998000
8f0000
060006
000000
000000
000000
ENDCHAR
STARTCHAR ch-76
ENCODING 76
SWIDTH 409 0
DWIDTH 9 0
BBX 9 22 0 -4
BITMAP
000000
000000
000000
000000
000003
060000
770000
f18008
998000
cf0000
600009
ff8006
ff800b
000000
000001
ff8000
ff8000
000000
000006
000000
000000
000000
ENDCHAR
STARTCHAR ch-77
ENCODING 77
SWIDTH 454 0
DWIDTH 10 0
BBX 10 22 0 -4
BITMAP
00000d
000000
000000
000000
000003
000000
000006
808008
c18007
7f0000
3e0009
000000
3e0000
7f0000
c1800f
808000
000000
000000
000000
000000
000000
000000
ENDCHAR
STARTCHAR ch-78
ENCODING 78
SWIDTH 409 0
DWIDTH 9 0
BBX 9 22 0 -4
BITMAP
00000d
000000
000000
000000
000003
000000
000000
180008
ff0007
e70000
000001
000000
e70000
ff0000
180000
000000
000000
000000
000001
000000
000000
000000
ENDCHAR
STARTCHAR ch-79
ENCODING 79
SWIDTH 409 0
DWIDTH 9 0
BBX 9 22 0 -4
BITMAP
000000
000000
000000
000000
000003
000000
000000
180008
ff0000
e70000
00000f
000006
ff000b
ff0000
000000
000000
000000
000000
000008
000000
000000
000000
ENDCHAR
STARTCHAR ch-80
ENCODING 80
SWIDTH 409 0
DWIDTH 9 0
BBX 9 22 0 -4
BITMAP
000000
000000
000000
000000
000003
180000
180000
000008
ff0000
ff0000
00000f
000006
ff000b
ff0000
000000
000000
000000
000000
000000
000000
000000
000000
ENDCHAR
STARTCHAR ch-81
ENCODING 81
SWIDTH 409 0
DWIDTH 9 0
BBX 9 22 0 -4
BITMAP
000000
000000
000000
000000
000003
180000
180008
000008
ff0000
ff0000
00000f
000006
ff000b
ff0000
000000
180000
180000
000000
000000
000000
000000
000000
ENDCHAR
STARTCHAR ch-82
ENCODING 82
SWIDTH 409 0
DWIDTH 9 0
BBX 9 22 0 -4
BITMAP
000000
000000
000000
000000
000003
c00000
c00008
000008
ff0000
ff0000
00000f
000006
ff000b
ff0000
000000
030000
030000
000000
000000
000000
000000
000000
ENDCHAR
STARTCHAR ch-83
ENCODING 83
SWIDTH 409 0
DWIDTH 9 0
BBX 9 22 0 -4
BITMAP
000000
000000
000000
000000
000003
030000
030000
000008
ff0000
ff0000
00000f
000006
ff000b
ff0000
000000
c00000
c00000
000000
000000
000000
000000
000000
ENDCHAR
STARTCHAR ch-84
ENCODING 84
SWIDTH 545 0
DWIDTH 12 0
BBX 12 22 0 -4
BITMAP
000000
000000
000000
000000
000003
000000
000003
000008
cfe000
cfe000
00000f
000006
cfe00b
cfe000
000000
000000
000000
000000
000000
000000
000000
000000
ENDCHAR
STARTCHAR ch-85
ENCODING 85
SWIDTH 545 0
DWIDTH 12 0
BBX 12 22 0 -4
BITMAP
000000
000000
000000
000000
000003
000000
000000
000008
fe6000
fe6000
00000f
000006
fe600b
fe6000
000000
000000
000000
000000
000000
000000
000000
000000
ENDCHAR
STARTCHAR ch-86
ENCODING 86
SWIDTH 409 0
DWIDTH 9 0
BBX 9 22 0 -4
BITMAP
00000d
000000
000000
000000
000003
000000
000000
000008
ff0007
ff0000
3c000e
660000
3c0000
ff0000
ff0000
000000
000000
000000
000000
000000
000000
000000
ENDCHAR
STARTCHAR ch-87
ENCODING 87
SWIDTH 409 0
DWIDTH 9 0
BBX 9 22 0 -4
BITMAP
000000
000000
000000
000000
000003
3c0000
660000
3c0008
000000
ff0000
ff000f
000006
00000b
ff0000
ff0006
000000
000000
000000
00000f
000000
000000
000000
ENDCHAR
STARTCHAR ch-88
ENCODING 88
SWIDTH 409 0
DWIDTH 9 0
BBX 9 22 0 -4
BITMAP
00000d
000000
000000
000000
000003
7e0000
42000c
000008
ff0007
ff0000
000000
000000
000000
ff0000
ff0000
000000
000000
000000
00000f
000000
000000
000000
ENDCHAR
STARTCHAR ch-89
ENCODING 89
SWIDTH 454 0
DWIDTH 10 0
BBX 10 22 0 -4
BITMAP
00000d
000000
000000
080000
1c0003
3e0000
22000e
000008
ff8007
ff8000
00000f
000000
ff8000
ff8000
000000
000000
000000
000000
00000f
000000
000000
000000
ENDCHAR
STARTCHAR ch-90
ENCODING 90
SWIDTH 454 0
DWIDTH 10 0
BBX 10 22 0 -4
BITMAP
000000
000000
000000
220000
3e0003
1c0000
08000e
000008
ff8000
ff8000
00000f
000006
ff800b
ff8000
000000
000000
000000
000000
000000
000000
000000
000000
ENDCHAR
STARTCHAR ch-91
ENCODING 91
SWIDTH 454 0
DWIDTH 10 0
BBX 10 22 0 -4
BITMAP
000000
000000
2a0000
1c0000
080003
1c0000
22000c
000008
ff8000
ff8000
00000f
000006
ff800b
ff8000
000000
000000
000000
000000
000000
000000
000000
000000
ENDCHAR
STARTCHAR ch-92
ENCODING 92
SWIDTH 454 0
DWIDTH 10 0
BBX 10 22 0 -4
BITMAP
000000
000000
00000a
080000
1c0003
360000
3e000c
000008
ff8000
ff8000
00000f
000006
ff800b
ff8000
000000
000000
000000
000000
000000
000000
000000
000000
ENDCHAR
STARTCHAR ch-93
ENCODING 93
SWIDTH 409 0
DWIDTH 9 0
BBX 9 22 0 -4
BITMAP
00000d
000000
000000
430000
420003
db0000
da0006
000008
ff0007
ff0000
00000f
000000
ff0000
ff0000
000000
000000
000000
000000
000000
000000
000000
000000
ENDCHAR
STARTCHAR ch-94
ENCODING 94
SWIDTH 409 0
DWIDTH 9 0
BBX 9 22 0 -4
BITMAP
00000d
000000
000000
000000
7c0003
540000
54000b
000008
ff0007
ff0000
00000f
000000
ff0000
ff0000
000000
000000
000000
000000
000000
000000
000000
000000
ENDCHAR
STARTCHAR ch-95
ENCODING 95
SWIDTH 409 0
DWIDTH 9 0
BBX 9 22 0 -4
BITMAP
00000d
000000
000000
380000
080003
100000
100004
000008
ff0007
ff0000
00000f
000000
ff0000
ff0000
000000
000000
000000
000000
000000
000000
000000
000000
ENDCHAR
STARTCHAR ch-96
ENCODING 96
SWIDTH 409 0
DWIDTH 9 0
BBX 9 22 0 -4
BITMAP
00000d
000000
000000
000000
000003
000000
0c0000
0c0008
7f0007
7f0000
18000f
180000
7f0000
7f0000
300000
300000
000000
000000
000000
000000
000000
000000
ENDCHAR
STARTCHAR ch-97
ENCODING 97
SWIDTH 409 0
DWIDTH 9 0
BBX 9 22 0 -4
BITMAP
00000d
000000
000000
000000
000003
000000
000000
ff0008
ff0007
000000
ff000f
ff0000
000000
ff0000
ff0008
000000
000000
000000
000000
000000
000000
000000
ENDCHAR
STARTCHAR ch-98
ENCODING 98
SWIDTH 409 0
DWIDTH 9 0
BBX 9 22 0 -4
BITMAP
00000d
000000
000000
000000
000003
0c0000
0c0000
ff0008
ff0007
180000
ff000f
ff0000
300000
ff0000
ff000f
600000
600000
000000
00000f
000000
000000
000000
ENDCHAR
STARTCHAR ch-99
ENCODING 99
SWIDTH 409 0
DWIDTH 9 0
BBX 9 22 0 -4
BITMAP
00000d
000000
000000
000000
000003
000000
ff000c
ff0008
000007
ff0000
ff000f
000000
ff0000
ff0000
00000f
ff0000
ff0000
000000
00000f
000000
000000
000000
ENDCHAR
STARTCHAR ch-100
ENCODING 100
SWIDTH 454 0
DWIDTH 10 0
BBX 10 22 0 -4
BITMAP
000000
000000
000000
000000
000003
018000
070000
1c0008
700000
c00000
c00000
700006
1c000b
070000
018000
000000
ff8000
ff8000
000000
000000
000000
000000
ENDCHAR
STARTCHAR ch-101
ENCODING 101
SWIDTH 454 0
DWIDTH 10 0
BBX 10 22 0 -4
BITMAP
00000d
000000
000000
000000
000003
c00000
700001
1c0008
070007
018000
018000
070000
1c0000
700000
c00000
000000
ff8000
ff8000
000001
000000
000000
000000
ENDCHAR
STARTCHAR ch-102
ENCODING 102
SWIDTH 409 0
DWIDTH 9 0
BBX 9 22 0 -4
BITMAP
000000
000000
000000
000000
000003
030000
0e0000
380008
700000
c00000
700007
180006
0e000b
030000
000007
ff0000
ff0000
000000
ff0000
ff0000
000000
000000
ENDCHAR
STARTCHAR ch-103
ENCODING 103
SWIDTH 409 0
DWIDTH 9 0
BBX 9 22 0 -4
BITMAP
000000
000000
000000
000000
000003
c00000
700003
1c0008
060000
030000
060000
1c0006
70000b
c00000
000008
ff0000
ff0000
000000
ff0000
ff0000
000000
000000
ENDCHAR
STARTCHAR ch-104
ENCODING 104
SWIDTH 409 0
DWIDTH 9 0
BBX 9 22 0 -4
BITMAP
00000d
000000
000000
000000
000003
030000
0e0000
180008
700007
c00000
700006
180000
0e0000
030000
0c000c
ff0000
ff0000
180000
ff0000
ff0000
300000
000000
ENDCHAR
STARTCHAR ch-105
ENCODING 105
SWIDTH 409 0
DWIDTH 9 0
BBX 9 22 0 -4
BITMAP
00000d
000000
000000
000000
000003
c00000
700003
1c0008
060007
030000
060000
1c0000
700000
c60000
ff0008
ff0000
0c0000
ff0000
ff000c
180000
000000
000000
ENDCHAR
STARTCHAR ch-106
ENCODING 106
SWIDTH 636 0
DWIDTH 14 0
BBX 14 22 0 -4
BITMAP
000000
000000
000000
000000
000003
000000
031800
0e3008
1c6000
31c000
630006
c60006
63000b
31c000
1c600c
0e3000
031800
000000
00000f
000000
000000
000000
ENDCHAR
STARTCHAR ch-107
ENCODING 107
SWIDTH 636 0
DWIDTH 14 0
BBX 14 22 0 -4
BITMAP
000000
000000
000000
000000
000003
000000
c60000
638008
38c000
0c6000
06300c
031806
06700b
0cc000
398006
630000
c60000
000000
00000c
000000
000000
000008
ENDCHAR
STARTCHAR ch-108
ENCODING 108
SWIDTH 272 0
DWIDTH 6 0
BBX 6 22 0 -4
BITMAP
000000
000000
000000
000000
000003
480000
480000
300008
300000
780000
c80008
c80006
c8000b
780000
300003
300000
480000
480000
000009
000000
000000
000000
ENDCHAR
STARTCHAR ch-109
ENCODING 109
SWIDTH 454 0
DWIDTH 10 0
BBX 10 22 0 -4
BITMAP
000000
000000
000000
000000
000003
030000
060008
868008
cd8000
7f0000
3e0000
0c0006
3e000b
7f0000
d98008
988000
300000
300000
000000
000000
000000
000000
ENDCHAR
STARTCHAR ch-110
ENCODING 110
SWIDTH 409 0
DWIDTH 9 0
BBX 9 22 0 -4
BITMAP
00000d
000000
000000
000000
000003
020000
060003
070008
0e0007
3c0000
68000d
d80000
700000
380000
3e000c
330000
600000
600000
000009
000000
000000
000000
ENDCHAR
STARTCHAR ch-111
ENCODING 111
SWIDTH 409 0
DWIDTH 9 0
BBX 9 22 0 -4
BITMAP
00000d
000000
000000
000000
000003
020000
060002
c60008
7c0007
1c0000
0e000e
1b0000
160000
1c0000
700008
f00000
600000
600000
00000e
000000
000000
000000
ENDCHAR
STARTCHAR ch-112
ENCODING 112
SWIDTH 409 0
DWIDTH 9 0
BBX 9 22 0 -4
BITMAP
000000
000000
000000
000000
020003
020000
030002
0e0008
3c0000
680000
c8000c
700006
3c000b
d60000
63000b
380000
4c0000
470000
400000
000000
000000
000000
ENDCHAR
STARTCHAR ch-113
ENCODING 113
SWIDTH 409 0
DWIDTH 9 0
BBX 9 22 0 -4
BITMAP
000000
000000
000000
000000
020003
060000
c60002
7c0008
1c0000
0e0000
1b000c
160006
38000b
730000
ee0000
780000
700000
e00000
400003
000000
000000
000000
ENDCHAR
STARTCHAR ch-114
ENCODING 114
SWIDTH 409 0
DWIDTH 9 0
BBX 9 22 0 -4
BITMAP
000000
000000
000000
000000
000003
030000
0e0006
380008
600000
c00000
60000c
380006
0e000b
030000
000006
600000
f10000
9b0000
8f000e
000000
000000
000000
ENDCHAR
STARTCHAR ch-115
ENCODING 115
SWIDTH 409 0
DWIDTH 9 0
BBX 9 22 0 -4
BITMAP
000000
000000
000000
000000
000003
c00000
700003
1c0008
060000
030000
060000
1c0006
70000b
c00000
000008
600000
f10000
9b0000
8f0000
000000
000000
000000
ENDCHAR
STARTCHAR ch-116
ENCODING 116
SWIDTH 409 0
DWIDTH 9 0
BBX 9 22 0 -4
BITMAP
000000
000000
000000
000000
060003
070000
0e0000
3c0008
6c0000
cc0000
680006
380006
1e000b
1b0000
10000c
700000
f10000
bb0000
cf0000
000000
000000
000000
ENDCHAR
STARTCHAR ch-117
ENCODING 117
SWIDTH 409 0
DWIDTH 9 0
BBX 9 22 0 -4
BITMAP
00000d
000000
000000
020000
060003
860000
640007
1c0008
0e0007
0d0000
0e000c
180000
780000
900000
300008
700000
f10000
bb0000
cf0000
000000
000000
000000
ENDCHAR
STARTCHAR ch-118
ENCODING 118
SWIDTH 454 0
DWIDTH 10 0
BBX 10 22 0 -4
BITMAP
00000d
000000
000000
000000
000003
038000
0e0006
380008
e00007
e00000
38000e
0e0000
c38000
780000
0e0008
038000
1e0000
780000
c00000
000000
000000
000000
ENDCHAR
STARTCHAR ch-119
ENCODING 119
SWIDTH 454 0
DWIDTH 10 0
BBX 10 22 0 -4
BITMAP
00000d
000000
000000
000000
000003
e00000
380003
0e0008
038007
038000
0e0000
380000
e38000
0e0000
38000e
e00000
380000
0e0000
03800e
000000
000000
000000
ENDCHAR
STARTCHAR ch-120
ENCODING 120
SWIDTH 454 0
DWIDTH 10 0
BBX 10 22 0 -4
BITMAP
000000
000000
000000
000000
180003
1b8000
1e0000
380008
f80000
f80000
3c0003
1e0006
db800b
780000
1e0008
1b8000
1e0000
780000
d80008
000000
000000
000000
ENDCHAR
STARTCHAR ch-121
ENCODING 121
SWIDTH 454 0
DWIDTH 10 0
BBX 10 22 0 -4
BITMAP
000000
000000
000000
000000
0c0003
cc0000
7c000b
1e0008
0f8000
0f8000
1e0008
7c0006
cf800b
0e0000
3c000e
ec0000
3c0000
0e0000
0f800e
000000
000000
000000
ENDCHAR
STARTCHAR ch-122
ENCODING 122
SWIDTH 454 0
DWIDTH 10 0
BBX 10 22 0 -4
BITMAP
000000
000000
000000
000000
000003
000000
00000c
008008
008000
018000
03000f
060006
fc000b
060000
03000c
018000
008000
008000
00000c
000000
000000
000000
ENDCHAR
STARTCHAR ch-123
ENCODING 123
SWIDTH 454 0
DWIDTH 10 0
BBX 10 22 0 -4
BITMAP
00000d
000000
000000
000000
000003
000000
000000
800008
800005
c00000
600000
300006
1f8000
300000
600006
c00000
800000
800000
000003
000000
000000
000000
ENDCHAR
STARTCHAR ch-124
ENCODING 124
SWIDTH 409 0
DWIDTH 9 0
BBX 9 22 0 -4
BITMAP
000000
000000
000000
000000
000003
000000
010000
030008
060000
0c0000
f80000
0c0006
e6000b
3b0000
0d0000
040000
060000
000000
000000
000000
000000
000000
ENDCHAR
STARTCHAR ch-125
ENCODING 125
SWIDTH 409 0
DWIDTH 9 0
BBX 9 22 0 -4
BITMAP
000000
000000
000000
000000
000003
000000
800000
c00008
600000
300000
1f0006
300006
67000b
dc0000
b0000c
200000
600000
000000
00000d
000000
000000
000000
ENDCHAR
STARTCHAR ch-126
ENCODING 126
SWIDTH 409 0
DWIDTH 9 0
BBX 9 22 0 -4
BITMAP
000000
000000
000000
000000
000003
010000
030000
060008
0c0000
f80000
0c0000
060006
03000b
010000
000000
600000
f10000
9b0000
8f0000
000000
000000
000000
ENDCHAR
STARTCHAR ch-127
ENCODING 127
SWIDTH 409 0
DWIDTH 9 0
BBX 9 22 0 -4
BITMAP
000000
000000
000000
000000
000003
800000
c00001
600008
300000
1f0000
30000c
600006
c0000b
800000
000006
060000
8f0000
d90000
f10000
000000
000000
000000
ENDCHAR
ENDFONT
